<?xml version="1.0" encoding="UTF-8"?><svg id="uuid-6037518d-4c37-4f1e-beec-3b6fa74eb9dc" xmlns="http://www.w3.org/2000/svg" width="1266.08" height="126.36" viewBox="0 0 1266.08 126.36"><path d="M0,124.33V0H15.27V124.33H0Z"/><path d="M100.58,95.32l15.77,1.95c-2.49,9.22-7.1,16.37-13.82,21.46-6.73,5.09-15.32,7.63-25.78,7.63-13.17,0-23.62-4.06-31.34-12.17-7.72-8.11-11.58-19.49-11.58-34.13s3.9-26.91,11.7-35.28c7.8-8.37,17.92-12.55,30.36-12.55s21.88,4.1,29.51,12.3c7.63,8.2,11.45,19.73,11.45,34.6,0,.91-.03,2.26-.08,4.07H49.61c.56,9.89,3.36,17.47,8.4,22.73,5.03,5.26,11.31,7.89,18.83,7.89,5.6,0,10.37-1.47,14.33-4.41,3.96-2.94,7.09-7.63,9.41-14.08Zm-50.12-24.68h50.29c-.68-7.58-2.6-13.26-5.77-17.05-4.86-5.88-11.17-8.82-18.91-8.82-7.01,0-12.91,2.35-17.68,7.04-4.78,4.69-7.42,10.97-7.93,18.83Z"/><path d="M129.41,97.44l15.1-2.37c.85,6.05,3.21,10.69,7.08,13.91,3.87,3.22,9.29,4.83,16.24,4.83s12.21-1.43,15.6-4.28c3.39-2.85,5.09-6.2,5.09-10.05,0-3.45-1.5-6.16-4.5-8.14-2.09-1.36-7.29-3.08-15.6-5.17-11.19-2.83-18.95-5.27-23.28-7.34-4.32-2.06-7.6-4.92-9.84-8.57-2.23-3.65-3.35-7.68-3.35-12.08,0-4.01,.92-7.73,2.76-11.15,1.84-3.42,4.34-6.26,7.51-8.52,2.37-1.75,5.61-3.24,9.71-4.45,4.1-1.22,8.49-1.82,13.19-1.82,7.07,0,13.27,1.02,18.62,3.05s9.29,4.79,11.83,8.27c2.54,3.48,4.3,8.13,5.26,13.95l-14.93,2.04c-.68-4.64-2.64-8.25-5.89-10.86-3.25-2.6-7.84-3.9-13.78-3.9-7.01,0-12.01,1.16-15.01,3.48-3,2.32-4.49,5.03-4.49,8.14,0,1.98,.62,3.76,1.87,5.34,1.24,1.64,3.19,3,5.85,4.07,1.53,.57,6.02,1.87,13.48,3.9,10.8,2.88,18.33,5.24,22.6,7.08,4.27,1.84,7.62,4.51,10.05,8.01,2.43,3.51,3.65,7.86,3.65,13.06s-1.48,9.88-4.45,14.37-7.25,7.97-12.85,10.43-11.93,3.69-19,3.69c-11.7,0-20.62-2.43-26.76-7.29-6.14-4.86-10.05-12.07-11.75-21.63Z"/><path d="M329.39,113.22c-5.65,4.81-11.1,8.2-16.33,10.18-5.23,1.98-10.84,2.97-16.83,2.97-9.89,0-17.5-2.42-22.81-7.25-5.31-4.83-7.97-11.01-7.97-18.53,0-4.41,1-8.44,3.01-12.08,2.01-3.65,4.64-6.57,7.89-8.78,3.25-2.2,6.91-3.87,10.98-5,3-.79,7.52-1.55,13.57-2.29,12.33-1.47,21.4-3.22,27.22-5.26,.06-2.09,.08-3.42,.08-3.99,0-6.22-1.44-10.6-4.33-13.15-3.9-3.45-9.7-5.17-17.39-5.17-7.18,0-12.48,1.26-15.9,3.77-3.42,2.52-5.95,6.97-7.59,13.36l-14.93-2.04c1.36-6.39,3.59-11.55,6.7-15.48,3.11-3.93,7.6-6.95,13.48-9.07,5.88-2.12,12.69-3.18,20.44-3.18s13.94,.91,18.74,2.71c4.8,1.81,8.34,4.09,10.6,6.83,2.26,2.74,3.84,6.21,4.75,10.39,.51,2.6,.76,7.29,.76,14.08v20.35c0,14.19,.32,23.17,.98,26.93,.65,3.76,1.94,7.37,3.86,10.81h-15.94c-1.58-3.17-2.6-6.87-3.05-11.11Zm-1.27-34.09c-5.54,2.26-13.85,4.19-24.93,5.77-6.28,.91-10.71,1.92-13.31,3.05-2.6,1.13-4.61,2.79-6.02,4.96-1.41,2.18-2.12,4.59-2.12,7.25,0,4.07,1.54,7.46,4.62,10.18,3.08,2.71,7.59,4.07,13.53,4.07s11.11-1.29,15.69-3.86c4.58-2.57,7.94-6.09,10.09-10.56,1.64-3.45,2.46-8.54,2.46-15.27v-5.6Z"/><path d="M400.54,110.67l2.21,13.48c-4.3,.9-8.14,1.36-11.53,1.36-5.54,0-9.84-.88-12.89-2.63-3.05-1.75-5.2-4.06-6.45-6.91-1.24-2.85-1.87-8.86-1.87-18.02V46.13h-11.19v-11.87h11.19V11.96l15.18-9.16v31.46h15.35v11.87h-15.35v52.67c0,4.35,.27,7.15,.81,8.4,.54,1.24,1.41,2.23,2.63,2.97,1.22,.74,2.95,1.1,5.22,1.1,1.7,0,3.93-.2,6.7-.59Z"/><path d="M477.12,95.32l15.77,1.95c-2.49,9.22-7.1,16.37-13.82,21.46-6.73,5.09-15.32,7.63-25.78,7.63-13.17,0-23.62-4.06-31.34-12.17-7.72-8.11-11.58-19.49-11.58-34.13s3.9-26.91,11.7-35.28c7.8-8.37,17.92-12.55,30.36-12.55s21.88,4.1,29.51,12.3c7.63,8.2,11.45,19.73,11.45,34.6,0,.91-.03,2.26-.08,4.07h-67.17c.56,9.89,3.36,17.47,8.4,22.73,5.03,5.26,11.31,7.89,18.83,7.89,5.6,0,10.37-1.47,14.33-4.41,3.96-2.94,7.09-7.63,9.41-14.08Zm-50.12-24.68h50.29c-.68-7.58-2.6-13.26-5.77-17.05-4.86-5.88-11.17-8.82-18.91-8.82-7.01,0-12.91,2.35-17.68,7.04-4.78,4.69-7.42,10.97-7.93,18.83Z"/><path d="M511.72,124.33V0h15.27V124.33h-15.27Z"/><path d="M550.73,17.56V0h15.27V17.56h-15.27Zm0,106.77V34.26h15.27V124.33h-15.27Z"/><path d="M650.89,95.32l15.77,1.95c-2.49,9.22-7.1,16.37-13.82,21.46-6.73,5.09-15.32,7.63-25.78,7.63-13.17,0-23.62-4.06-31.34-12.17-7.72-8.11-11.58-19.49-11.58-34.13s3.9-26.91,11.7-35.28c7.8-8.37,17.92-12.55,30.36-12.55s21.88,4.1,29.51,12.3c7.63,8.2,11.45,19.73,11.45,34.6,0,.91-.03,2.26-.08,4.07h-67.17c.56,9.89,3.36,17.47,8.4,22.73,5.03,5.26,11.31,7.89,18.83,7.89,5.6,0,10.37-1.47,14.33-4.41,3.96-2.94,7.09-7.63,9.41-14.08Zm-50.12-24.68h50.29c-.68-7.58-2.6-13.26-5.77-17.05-4.86-5.88-11.17-8.82-18.91-8.82-7.01,0-12.91,2.35-17.68,7.04-4.78,4.69-7.42,10.97-7.93,18.83Z"/><path d="M685.66,124.33V34.26h13.74v13.65c3.5-6.39,6.74-10.6,9.71-12.64,2.97-2.04,6.23-3.05,9.79-3.05,5.14,0,10.37,1.64,15.69,4.92l-5.26,14.16c-3.73-2.21-7.46-3.31-11.2-3.31-3.34,0-6.33,1-8.99,3.01-2.66,2.01-4.55,4.79-5.68,8.35-1.7,5.43-2.54,11.36-2.54,17.81v47.15h-15.27Z"/><path d="M737.56,97.44l15.1-2.37c.85,6.05,3.21,10.69,7.08,13.91,3.87,3.22,9.29,4.83,16.24,4.83s12.21-1.43,15.6-4.28c3.39-2.85,5.09-6.2,5.09-10.05,0-3.45-1.5-6.16-4.5-8.14-2.09-1.36-7.29-3.08-15.6-5.17-11.19-2.83-18.95-5.27-23.28-7.34-4.33-2.06-7.6-4.92-9.84-8.57-2.23-3.65-3.35-7.68-3.35-12.08,0-4.01,.92-7.73,2.76-11.15,1.84-3.42,4.34-6.26,7.5-8.52,2.38-1.75,5.61-3.24,9.71-4.45,4.1-1.22,8.49-1.82,13.19-1.82,7.07,0,13.27,1.02,18.62,3.05s9.29,4.79,11.83,8.27c2.54,3.48,4.3,8.13,5.26,13.95l-14.93,2.04c-.68-4.64-2.64-8.25-5.89-10.86-3.25-2.6-7.84-3.9-13.78-3.9-7.01,0-12.01,1.16-15.01,3.48-3,2.32-4.49,5.03-4.49,8.14,0,1.98,.62,3.76,1.87,5.34,1.24,1.64,3.19,3,5.85,4.07,1.53,.57,6.02,1.87,13.48,3.9,10.8,2.88,18.33,5.24,22.6,7.08,4.27,1.84,7.62,4.51,10.05,8.01,2.43,3.51,3.65,7.86,3.65,13.06s-1.48,9.88-4.45,14.37c-2.97,4.49-7.25,7.97-12.85,10.43-5.6,2.46-11.93,3.69-19,3.69-11.7,0-20.62-2.43-26.76-7.29-6.14-4.86-10.05-12.07-11.75-21.63Z"/><path d="M937.54,91.34l15.01,1.95c-1.64,10.35-5.84,18.45-12.59,24.3-6.76,5.85-15.05,8.78-24.89,8.78-12.33,0-22.23-4.03-29.72-12.08-7.49-8.06-11.24-19.6-11.24-34.64,0-9.72,1.61-18.23,4.83-25.53s8.13-12.76,14.71-16.41c6.59-3.65,13.75-5.47,21.5-5.47,9.78,0,17.78,2.47,24,7.42,6.22,4.95,10.21,11.97,11.96,21.07l-14.84,2.29c-1.41-6.05-3.92-10.6-7.5-13.65-3.59-3.05-7.93-4.58-13.02-4.58-7.69,0-13.94,2.76-18.74,8.27-4.81,5.51-7.21,14.23-7.21,26.16s2.32,20.89,6.95,26.38c4.64,5.48,10.69,8.23,18.15,8.23,5.99,0,11-1.84,15.01-5.51,4.01-3.67,6.56-9.33,7.63-16.96Z"/><path d="M965.27,124.33V0h15.27V124.33h-15.27Z"/><path d="M1062.97,113.22c-5.65,4.81-11.1,8.2-16.33,10.18-5.23,1.98-10.84,2.97-16.83,2.97-9.89,0-17.5-2.42-22.81-7.25s-7.97-11.01-7.97-18.53c0-4.41,1-8.44,3.01-12.08,2.01-3.65,4.64-6.57,7.89-8.78,3.25-2.2,6.91-3.87,10.98-5,3-.79,7.52-1.55,13.57-2.29,12.33-1.47,21.4-3.22,27.22-5.26,.06-2.09,.08-3.42,.08-3.99,0-6.22-1.44-10.6-4.33-13.15-3.9-3.45-9.7-5.17-17.38-5.17-7.18,0-12.48,1.26-15.9,3.77-3.42,2.52-5.95,6.97-7.59,13.36l-14.93-2.04c1.36-6.39,3.59-11.55,6.7-15.48,3.11-3.93,7.6-6.95,13.48-9.07,5.88-2.12,12.69-3.18,20.44-3.18s13.94,.91,18.74,2.71c4.8,1.81,8.34,4.09,10.6,6.83,2.26,2.74,3.84,6.21,4.75,10.39,.51,2.6,.76,7.29,.76,14.08v20.35c0,14.19,.32,23.17,.97,26.93,.65,3.76,1.94,7.37,3.86,10.81h-15.94c-1.58-3.17-2.6-6.87-3.05-11.11Zm-1.27-34.09c-5.54,2.26-13.85,4.19-24.93,5.77-6.28,.91-10.71,1.92-13.31,3.05-2.6,1.13-4.61,2.79-6.02,4.96-1.41,2.18-2.12,4.59-2.12,7.25,0,4.07,1.54,7.46,4.62,10.18,3.08,2.71,7.59,4.07,13.53,4.07s11.11-1.29,15.69-3.86c4.58-2.57,7.94-6.09,10.09-10.56,1.64-3.45,2.46-8.54,2.46-15.27v-5.6Z"/><path d="M1159.81,124.33v-13.23c-7.01,10.18-16.54,15.27-28.58,15.27-5.32,0-10.28-1.02-14.88-3.05-4.61-2.04-8.03-4.59-10.26-7.68-2.23-3.08-3.8-6.85-4.71-11.32-.62-3-.93-7.75-.93-14.25V34.26h15.27v49.95c0,7.97,.31,13.34,.93,16.11,.96,4.02,3,7.17,6.11,9.46,3.11,2.29,6.95,3.43,11.53,3.43s8.88-1.17,12.89-3.52c4.01-2.35,6.85-5.54,8.52-9.58,1.67-4.04,2.5-9.91,2.5-17.6V34.26h15.26V124.33h-13.65Z"/><path d="M1191.28,97.44l15.1-2.37c.85,6.05,3.21,10.69,7.08,13.91,3.87,3.22,9.29,4.83,16.24,4.83s12.21-1.43,15.6-4.28c3.39-2.85,5.09-6.2,5.09-10.05,0-3.45-1.5-6.16-4.5-8.14-2.09-1.36-7.29-3.08-15.6-5.17-11.19-2.83-18.95-5.27-23.28-7.34-4.33-2.06-7.6-4.92-9.84-8.57-2.23-3.65-3.35-7.68-3.35-12.08,0-4.01,.92-7.73,2.76-11.15,1.84-3.42,4.34-6.26,7.5-8.52,2.38-1.75,5.61-3.24,9.71-4.45,4.1-1.22,8.49-1.82,13.19-1.82,7.07,0,13.27,1.02,18.62,3.05s9.29,4.79,11.83,8.27c2.54,3.48,4.3,8.13,5.26,13.95l-14.93,2.04c-.68-4.64-2.64-8.25-5.89-10.86-3.25-2.6-7.84-3.9-13.78-3.9-7.01,0-12.01,1.16-15.01,3.48-3,2.32-4.49,5.03-4.49,8.14,0,1.98,.62,3.76,1.87,5.34,1.24,1.64,3.19,3,5.85,4.07,1.53,.57,6.02,1.87,13.48,3.9,10.8,2.88,18.33,5.24,22.6,7.08,4.27,1.84,7.62,4.51,10.05,8.01,2.43,3.51,3.65,7.86,3.65,13.06s-1.48,9.88-4.45,14.37c-2.97,4.49-7.25,7.97-12.85,10.43-5.6,2.46-11.93,3.69-19,3.69-11.7,0-20.62-2.43-26.76-7.29-6.14-4.86-10.05-12.07-11.75-21.63Z"/></svg>